<svg width="134" height="26" viewBox="0 0 134 26" fill="none" xmlns="http://www.w3.org/2000/svg">
<rect x="12.6323" y="0.498352" width="0.735391" height="12.5016" fill="#62196D"/>
<rect x="13" y="1.41421" width="16.3848" height="16.3848" transform="rotate(45 13 1.41421)" stroke="#E6E6E6" stroke-width="2"/>
<path d="M38.3 13.84C39.0867 13.9867 39.7333 14.38 40.24 15.02C40.7467 15.66 41 16.3933 41 17.22C41 17.9667 40.8133 18.6267 40.44 19.2C40.08 19.76 39.5533 20.2 38.86 20.52C38.1667 20.84 37.3467 21 36.4 21H30.38V7.04H36.14C37.0867 7.04 37.9 7.19333 38.58 7.5C39.2733 7.80667 39.7933 8.23333 40.14 8.78C40.5 9.32667 40.68 9.94667 40.68 10.64C40.68 11.4533 40.46 12.1333 40.02 12.68C39.5933 13.2267 39.02 13.6133 38.3 13.84ZM33.18 12.8H35.74C36.4067 12.8 36.92 12.6533 37.28 12.36C37.64 12.0533 37.82 11.62 37.82 11.06C37.82 10.5 37.64 10.0667 37.28 9.76C36.92 9.45333 36.4067 9.3 35.74 9.3H33.18V12.8ZM36 18.72C36.68 18.72 37.2067 18.56 37.58 18.24C37.9667 17.92 38.16 17.4667 38.16 16.88C38.16 16.28 37.96 15.8133 37.56 15.48C37.16 15.1333 36.62 14.96 35.94 14.96H33.18V18.72H36ZM45.0316 11.64C45.3916 11.0533 45.8582 10.5933 46.4316 10.26C47.0182 9.92667 47.6849 9.76 48.4316 9.76V12.7H47.6916C46.8116 12.7 46.1449 12.9067 45.6916 13.32C45.2516 13.7333 45.0316 14.4533 45.0316 15.48V21H42.2316V9.92H45.0316V11.64ZM59.6175 15.22C59.6175 15.62 59.5908 15.98 59.5375 16.3H51.4375C51.5042 17.1 51.7842 17.7267 52.2775 18.18C52.7708 18.6333 53.3775 18.86 54.0975 18.86C55.1375 18.86 55.8775 18.4133 56.3175 17.52H59.3375C59.0175 18.5867 58.4042 19.4667 57.4975 20.16C56.5908 20.84 55.4775 21.18 54.1575 21.18C53.0908 21.18 52.1308 20.9467 51.2775 20.48C50.4375 20 49.7775 19.3267 49.2975 18.46C48.8308 17.5933 48.5975 16.5933 48.5975 15.46C48.5975 14.3133 48.8308 13.3067 49.2975 12.44C49.7642 11.5733 50.4175 10.9067 51.2575 10.44C52.0975 9.97333 53.0642 9.74 54.1575 9.74C55.2108 9.74 56.1508 9.96667 56.9775 10.42C57.8175 10.8733 58.4642 11.52 58.9175 12.36C59.3842 13.1867 59.6175 14.14 59.6175 15.22ZM56.7175 14.42C56.7042 13.7 56.4442 13.1267 55.9375 12.7C55.4308 12.26 54.8108 12.04 54.0775 12.04C53.3842 12.04 52.7975 12.2533 52.3175 12.68C51.8508 13.0933 51.5642 13.6733 51.4575 14.42H56.7175ZM66.8013 9.76C68.1213 9.76 69.1879 10.18 70.0013 11.02C70.8146 11.8467 71.2213 13.0067 71.2213 14.5V21H68.4213V14.88C68.4213 14 68.2013 13.3267 67.7613 12.86C67.3213 12.38 66.7213 12.14 65.9613 12.14C65.1879 12.14 64.5746 12.38 64.1213 12.86C63.6813 13.3267 63.4613 14 63.4613 14.88V21H60.6613V9.92H63.4613V11.3C63.8346 10.82 64.3079 10.4467 64.8813 10.18C65.4679 9.9 66.1079 9.76 66.8013 9.76ZM77.8039 21.18C76.7372 21.18 75.7772 20.9467 74.9239 20.48C74.0706 20 73.3972 19.3267 72.9039 18.46C72.4239 17.5933 72.1839 16.5933 72.1839 15.46C72.1839 14.3267 72.4306 13.3267 72.9239 12.46C73.4306 11.5933 74.1172 10.9267 74.9839 10.46C75.8506 9.98 76.8172 9.74 77.8839 9.74C78.9506 9.74 79.9172 9.98 80.7839 10.46C81.6506 10.9267 82.3306 11.5933 82.8239 12.46C83.3306 13.3267 83.5839 14.3267 83.5839 15.46C83.5839 16.5933 83.3239 17.5933 82.8039 18.46C82.2972 19.3267 81.6039 20 80.7239 20.48C79.8572 20.9467 78.8839 21.18 77.8039 21.18ZM77.8039 18.74C78.3106 18.74 78.7839 18.62 79.2239 18.38C79.6772 18.1267 80.0372 17.7533 80.3039 17.26C80.5706 16.7667 80.7039 16.1667 80.7039 15.46C80.7039 14.4067 80.4239 13.6 79.8639 13.04C79.3172 12.4667 78.6439 12.18 77.8439 12.18C77.0439 12.18 76.3706 12.4667 75.8239 13.04C75.2906 13.6 75.0239 14.4067 75.0239 15.46C75.0239 16.5133 75.2839 17.3267 75.8039 17.9C76.3372 18.46 77.0039 18.74 77.8039 18.74ZM99.1233 7.04C100.59 7.04 101.877 7.32667 102.983 7.9C104.103 8.47333 104.963 9.29333 105.563 10.36C106.177 11.4133 106.483 12.64 106.483 14.04C106.483 15.44 106.177 16.6667 105.563 17.72C104.963 18.76 104.103 19.5667 102.983 20.14C101.877 20.7133 100.59 21 99.1233 21H94.2433V7.04H99.1233ZM99.0233 18.62C100.49 18.62 101.623 18.22 102.423 17.42C103.223 16.62 103.623 15.4933 103.623 14.04C103.623 12.5867 103.223 11.4533 102.423 10.64C101.623 9.81333 100.49 9.4 99.0233 9.4H97.0433V18.62H99.0233ZM117.879 15.22C117.879 15.62 117.853 15.98 117.799 16.3H109.699C109.766 17.1 110.046 17.7267 110.539 18.18C111.033 18.6333 111.639 18.86 112.359 18.86C113.399 18.86 114.139 18.4133 114.579 17.52H117.599C117.279 18.5867 116.666 19.4667 115.759 20.16C114.853 20.84 113.739 21.18 112.419 21.18C111.353 21.18 110.393 20.9467 109.539 20.48C108.699 20 108.039 19.3267 107.559 18.46C107.093 17.5933 106.859 16.5933 106.859 15.46C106.859 14.3133 107.093 13.3067 107.559 12.44C108.026 11.5733 108.679 10.9067 109.519 10.44C110.359 9.97333 111.326 9.74 112.419 9.74C113.473 9.74 114.413 9.96667 115.239 10.42C116.079 10.8733 116.726 11.52 117.179 12.36C117.646 13.1867 117.879 14.14 117.879 15.22ZM114.979 14.42C114.966 13.7 114.706 13.1267 114.199 12.7C113.693 12.26 113.073 12.04 112.339 12.04C111.646 12.04 111.059 12.2533 110.579 12.68C110.113 13.0933 109.826 13.6733 109.719 14.42H114.979ZM123.543 18.42L126.343 9.92H129.323L125.223 21H121.823L117.743 9.92H120.743L123.543 18.42Z" fill="#E6E6E6"/>
<path d="M93.2578 7.04V9.3H87.4378V12.88H91.8978V15.1H87.4378V21H84.6378V7.04H93.2578Z" fill="#62196D"/>
</svg>
